# xmcd
#
# Track frame offsets:
#	182
#	14027
#	26055
#	37577
#	50750
#	62977
#	77440
#	88325
#	98207
#	108667
#	118890
#	129755
#
# Disc length: 1867 seconds
#
# Revision: 4
# Processed by: cddbd v1.4PL0 Copyright (c) Steve Scherf et al.
# Submitted via: audiograbber 1.82.00
#
DISCID=9f07490c
DTITLE=Country Music - The Country Collection - Vol. 2
DYEAR=1989
DGENRE=Country
TTITLE0=Willie Nelson - Home Is Where You're Happy
TTITLE1=Billie Jo Spears - Look What They've Done To My Song
TTITLE2=Dolly Parton - Makin' Believe
TTITLE3=Kenny Rogers - Ruby, Don't Take Your Love To Town
TTITLE4=Faron Young - Sweet Dreams
TTITLE5=Patsy Cline - Then You'll Know
TTITLE6=Stonewall Jackson - Things To Walk About
TTITLE7=Willie Nelson - I Didn't Sleep A Wink
TTITLE8=Ferlin Husky - Wings Of A Dove
TTITLE9=Waylon Jennings - White Lightening
TTITLE10=Glenn Campbell - Red Wing
TTITLE11=Conway Twitty - Born To Sing
EXTD=
EXTT0=Willie Nelson\n
EXTT1=Billie Jo Spear\n
EXTT2=Dollie Parton\n
EXTT3=Kenny Rogers\n
EXTT4=Faron Young\n
EXTT5=Patsy Cline\n
EXTT6=Stonewall Jackson\n
EXTT7=Willie Nelson\n
EXTT8=Ferlin Husky\n
EXTT9=Waylon Jennings\n
EXTT10=Glenn Campbell\n
EXTT11=Conway Twitty\n
PLAYORDER=
